PathFileType	4	(X/Y/Z)	/Users/itak/Documents/Research/Walk-IL/dataset/trc/00299_00010.trc
DataRate	CameraRate	NumFrames	NumMarkers	Units	OrigDataRate	OrigDataStartFrame	OrigNumFrames
100.000000	100.000000	4	53	mm	100.000000	136	364
Frame#	Time	RPSI			LPSI			L3			STRN			T10			C7			CLAV			RBAK			LBAK			LSHO			LUPA			LAEL			LAOL			LWPS			LFRA			LIFD			LHPS			LHTS			RSHO			RUPA			RAEL			RAOL			RWTS			RWPS			RFRA			RIFD			RHTS			RHPS			RBHD			LFHD			RFHD			LBHD			LHIP			RHIP			RASI			LASI			LKNE			LTHI			LANK			LTIP			LTOE			LMT1			LMT5			LHEE			RKNE			RTHI			RTIP			RTOE			RMT1			RMT5			RHEE			LWTS			RANK			
		X1	Y1	Z1	X2	Y2	Z2	X3	Y3	Z3	X4	Y4	Z4	X5	Y5	Z5	X6	Y6	Z6	X7	Y7	Z7	X8	Y8	Z8	X9	Y9	Z9	X10	Y10	Z10	X11	Y11	Z11	X12	Y12	Z12	X13	Y13	Z13	X14	Y14	Z14	X15	Y15	Z15	X16	Y16	Z16	X17	Y17	Z17	X18	Y18	Z18	X19	Y19	Z19	X20	Y20	Z20	X21	Y21	Z21	X22	Y22	Z22	X23	Y23	Z23	X24	Y24	Z24	X25	Y25	Z25	X26	Y26	Z26	X27	Y27	Z27	X28	Y28	Z28	X29	Y29	Z29	X30	Y30	Z30	X31	Y31	Z31	X32	Y32	Z32	X33	Y33	Z33	X34	Y34	Z34	X35	Y35	Z35	X36	Y36	Z36	X37	Y37	Z37	X38	Y38	Z38	X39	Y39	Z39	X40	Y40	Z40	X41	Y41	Z41	X42	Y42	Z42	X43	Y43	Z43	X44	Y44	Z44	X45	Y45	Z45	X46	Y46	Z46	X47	Y47	Z47	X48	Y48	Z48	X49	Y49	Z49	X50	Y50	Z50	X51	Y51	Z51	X52	Y52	Z52	X53	Y53	Z53	

137	1.36	-132.3415222167969	970.7791137695312	342.5675659179688	-244.7295379638672	952.0648193359375	209.3377990722656	-173.0661773681641	1024.613891601562	272.2891540527344	-22.55379295349121	1206.886962890625	93.63003540039062	-187.5078887939453	1136.710083007812	291.1843566894531	-187.2566528320312	1382.5771484375	245.2562255859375	-75.49985504150391	1304.586547851562	133.8475799560547	-156.5458068847656	1249.812744140625	338.1282348632812	-274.7386169433594	1337.784545898438	193.0636291503906	-259.4783325195312	1343.10888671875	88.927978515625	-335.5914001464844	1225.027954101562	83.32704925537109	-352.1877746582031	1025.168212890625	101.7131958007812	-323.2735290527344	1018.877807617188	183.3970184326172	-367.2810363769531	786.816162109375	96.95233917236328	-364.7159729003906	920.1023559570312	102.1225738525391	-322.4578552246094	611.0225219726562	139.2615814208984	-375.3179931640625	701.067138671875	115.9864730834961	-314.3787536621094	687.7439575195312	92.81767272949219	-24.34325981140137	1372.021118164062	299.9977722167969	24.26171684265137	1316.87060546875	349.3743591308594	112.8050384521484	1064.373901367188	390.8395385742188	31.01855659484863	1031.460571289062	352.2522277832031	210.5392913818359	958.6174926757812	191.9368591308594	254.2871398925781	931.2477416992188	260.4931640625	160.2897644042969	1025.070068359375	357.3920288085938	307.0291748046875	833.25146484375	91.02753448486328	291.8453063964844	899.1450805664062	125.4867858886719	313.6072998046875	868.7910766601562	185.6988220214844	-100.4793548583984	1557.6923828125	259.614501953125	-104.994987487793	1568.818603515625	46.37200164794922	-28.54049873352051	1571.486083984375	99.31838989257812	-221.8799743652344	1543.45458984375	176.2773895263672	-249.2149810791016	905.2091064453125	90.22223663330078	10.31975364685059	919.0157470703125	363.865966796875	60.14648818969727	914.4623413085938	234.4680480957031	-110.3407821655273	915.1930541992188	44.96378326416016	-48.75737762451172	483.2032470703125	-26.53648567199707	-120.0752868652344	608.0244140625	-5.474519729614258	-1.139400601387024	41.7269287109375	2.210615396499634	-28.63435554504395	249.6377410888672	-23.29100036621094	181.0264282226562	47.23883819580078	-113.5615844726562	165.4688873291016	31.78614807128906	-35.46677017211914	72.66444396972656	41.68862915039062	-97.27658081054688	15.46721649169922	34.9765739440918	75.03374481201172	-73.15237426757812	458.1904296875	397.7097778320312	20.77934646606445	703.8744506835938	351.7568664550781	-118.3707504272461	342.775146484375	425.5597229003906	-204.0371856689453	40.87606430053711	413.0411682128906	-268.9667053222656	49.59381484985352	418.3130493164062	-215.3471374511719	44.52857208251953	525.1468505859375	-361.8766479492188	123.6446533203125	568.85400390625	-294.2721557617188	789.4152221679688	95.26377105712891	-293.1768493652344	99.98383331298828	572.545166015625	
138	1.37	-122.0324401855469	971.7381591796875	334.1616821289062	-236.1828308105469	954.5325927734375	202.2093658447266	-163.7713928222656	1026.1142578125	264.5057373046875	-16.24613761901855	1209.530883789062	84.74977111816406	-178.9617767333984	1137.866943359375	283.7663879394531	-180.9644317626953	1383.691284179688	238.0911254882812	-69.53583526611328	1306.860595703125	125.6733016967773	-148.5946655273438	1251.18212890625	330.6844482421875	-268.4171142578125	1338.465576171875	186.5157775878906	-253.994384765625	1344.172485351562	82.29903411865234	-329.1439819335938	1225.677612304688	76.71892547607422	-344.1688537597656	1025.676513671875	94.49235534667969	-314.8320617675781	1019.402465820312	175.9736022949219	-357.8287353515625	787.1629028320312	89.26068115234375	-356.0420227050781	920.5606079101562	94.68106842041016	-311.5270690917969	611.7203369140625	131.6625671386719	-365.2467041015625	701.3590698242188	108.4608840942383	-304.4172973632812	688.3558349609375	84.90967559814453	-17.64989280700684	1374.462036132812	291.6903991699219	31.38466835021973	1319.46533203125	340.7797241210938	118.1254653930664	1066.40966796875	382.29931640625	36.04842376708984	1034.38427734375	343.6015625	214.7050018310547	956.335693359375	184.8452606201172	257.8104553222656	929.188232421875	253.8656616210938	165.1957550048828	1025.912841796875	349.2524719238281	309.3918151855469	827.9174194335938	85.99688720703125	295.130615234375	894.5367431640625	119.4195098876953	316.2862548828125	864.7012939453125	180.1686706542969	-95.18717193603516	1559.153076171875	252.3502349853516	-100.4113540649414	1570.906494140625	39.13055038452148	-23.80434608459473	1573.597534179688	91.85677337646484	-216.7676239013672	1544.874267578125	169.377685546875	-242.5246734619141	908.51123046875	82.81385040283203	20.45889663696289	918.9349975585938	353.3887939453125	67.88700866699219	915.1165771484375	223.2801971435547	-104.2504959106445	918.2105102539062	35.66427993774414	-43.12872695922852	484.35595703125	-33.71869659423828	-113.8415603637695	610.3139038085938	-13.73266696929932	-0.8673791885375977	42.2059211730957	1.383669972419739	-25.22964286804199	250.1645355224609	-27.73030281066895	182.8917846679688	43.7835693359375	-113.3568420410156	166.3170623779297	30.13239097595215	-34.96577072143555	73.86228179931641	40.78400421142578	-97.45738983154297	15.29810810089111	35.60643005371094	74.40419769287109	-61.95749282836914	458.0125732421875	387.1293334960938	30.54483032226562	703.7960815429688	340.1059265136719	-108.6828765869141	344.1220092773438	417.8781127929688	-203.9905242919922	40.96218109130859	413.2781677246094	-267.157958984375	50.88124465942383	417.3431091308594	-213.17578125	46.22639083862305	524.242919921875	-356.1246032714844	133.4742126464844	564.3547973632812	-284.9787902832031	790.227783203125	86.96308135986328	-288.73095703125	106.6632843017578	569.4139404296875	
139	1.38	-112.0806884765625	972.6934204101562	325.7483520507812	-227.75390625	956.8760375976562	194.9585113525391	-154.7291564941406	1027.761962890625	256.7205810546875	-10.01031589508057	1212.317626953125	75.87971496582031	-170.5455017089844	1139.212768554688	276.3904113769531	-174.6507720947266	1384.925537109375	230.9584045410156	-63.59597778320312	1309.29248046875	117.531494140625	-140.6314239501953	1252.704833984375	323.2285461425781	-262.058837890625	1339.286010742188	179.9853515625	-248.4787292480469	1345.409790039062	75.72840118408203	-322.7035217285156	1226.5869140625	70.11599731445312	-336.2648010253906	1026.445922851562	87.19147491455078	-306.5676879882812	1020.198425292969	168.4911651611328	-348.276123046875	787.763427734375	81.12080383300781	-347.4021911621094	921.2648315429688	87.01607513427734	-300.2237548828125	612.6800537109375	123.3681182861328	-354.9572143554688	701.85693359375	100.3531951904297	-294.2199401855469	689.2964477539062	76.40309906005859	-10.9507884979248	1377.041870117188	283.3830261230469	38.58134841918945	1322.260620117188	332.1636962890625	123.4735107421875	1068.654541015625	373.8147277832031	41.06732940673828	1037.534790039062	335.1488647460938	218.70947265625	953.7406616210938	178.0551147460938	261.06787109375	926.8839111328125	247.6195831298828	170.075439453125	1026.832763671875	341.2571716308594	311.2594299316406	821.9451904296875	81.63145446777344	298.0965576171875	889.3609008789062	113.8710403442383	318.5513305664062	860.136962890625	175.2109527587891	-89.93534088134766	1560.731567382812	245.0932312011719	-95.89902496337891	1573.051635742188	31.89761734008789	-19.14625358581543	1575.829956054688	84.39054870605469	-211.6825866699219	1546.322998046875	162.5233306884766	-235.9196624755859	911.642578125	75.32475280761719	30.30691146850586	919.0689086914062	342.9482116699219	75.49913024902344	916.2552490234375	212.0726928710938	-98.25715637207031	921.2448120117188	26.37053871154785	-37.91331100463867	485.2129821777344	-40.34942626953125	-107.8169021606445	612.3257446289062	-21.69557762145996	-0.6462903022766113	42.58201217651367	0.7497567534446716	-22.21877288818359	250.5387725830078	-31.6342887878418	184.3276824951172	41.1279411315918	-113.1177291870117	166.9637603759766	28.96714973449707	-34.51301193237305	74.74433898925781	40.22881698608398	-97.55667877197266	15.13319301605225	36.05492782592773	73.91897583007812	-49.77581405639648	457.7645874023438	376.1290893554688	40.51105880737305	703.9100341796875	328.3194885253906	-98.04766845703125	345.5096130371094	409.6893310546875	-203.8580932617188	41.01657485961914	413.5217590332031	-265.0331726074219	52.35470199584961	416.1839599609375	-210.6917877197266	48.19113159179688	523.1738891601562	-349.3164672851562	143.7749633789062	559.03564453125	-275.6061096191406	791.3877563476562	78.22378540039062	-283.5708618164062	113.7587966918945	565.64794921875	
140	1.39	-102.6116333007812	973.6101684570312	317.3458862304688	-219.5285949707031	959.0966796875	187.5491638183594	-146.0272674560547	1029.50927734375	248.9060821533203	-3.829649925231934	1215.157470703125	67.05567932128906	-162.3130035400391	1140.67431640625	269.0122680664062	-168.3108062744141	1386.222900390625	223.8647308349609	-57.66144561767578	1311.800170898438	109.4384994506836	-132.6978607177734	1254.298095703125	315.7515869140625	-255.6646423339844	1340.185180664062	173.4598388671875	-242.9193572998047	1346.753051757812	69.20188140869141	-316.2852783203125	1227.681884765625	63.51739501953125	-328.5090637207031	1027.398315429688	79.83052062988281	-298.4739074707031	1021.178405761719	160.9748382568359	-338.6450805664062	788.5530395507812	72.55146789550781	-338.8139038085938	922.133544921875	79.15383148193359	-288.5796203613281	613.8375854492188	114.3316345214844	-344.465576171875	702.4979248046875	91.65940093994141	-283.7899169921875	690.5119018554688	67.29649353027344	-4.26572322845459	1379.666259765625	275.1151428222656	45.82242584228516	1325.150756835938	323.5715026855469	128.9225616455078	1071.032104492188	365.382080078125	46.16234970092773	1040.812622070312	326.9248046875	222.5576171875	950.8261108398438	171.5634918212891	264.1100463867188	924.3400268554688	241.7229461669922	174.9952087402344	1027.778686523438	333.3886108398438	312.5954895019531	815.3770141601562	77.88713073730469	300.7059631347656	883.63671875	108.8012924194336	320.4147033691406	855.1310424804688	170.7660064697266	-84.70627593994141	1562.387573242188	237.8599853515625	-91.45785522460938	1575.183959960938	24.6873893737793	-14.55788898468018	1578.126831054688	76.92835998535156	-206.6251983642578	1547.741943359375	155.7326354980469	-229.3908843994141	914.58544921875	67.72991943359375	39.72846221923828	919.4019165039062	332.6574401855469	82.99504089355469	917.8516235351562	200.9942779541016	-92.30259704589844	924.1864013671875	17.15990447998047	-33.15154266357422	485.7554016113281	-46.4052734375	-102.086799621582	613.9638061523438	-29.24336242675781	-0.4551006555557251	42.86997604370117	0.2981211841106415	-19.55992317199707	250.7635498046875	-35.03845977783203	185.4052734375	39.18410110473633	-112.8654022216797	167.4549865722656	28.17981147766113	-34.11655044555664	75.37493133544922	39.93392944335938	-97.58557891845703	14.99740982055664	36.36032485961914	73.57133483886719	-36.66778945922852	457.4377746582031	364.7352600097656	50.61404037475586	704.1997680664062	316.5207824707031	-86.47251129150391	346.8802795410156	400.9275817871094	-203.5240478515625	40.98534774780273	413.6610717773438	-262.55322265625	54.0503044128418	414.7920532226562	-207.8594818115234	50.4986457824707	521.8768920898438	-341.3275756835938	154.4342193603516	552.9188232421875	-266.1612854003906	792.8359375	69.07798004150391	-277.5394592285156	121.2778472900391	561.2203979492188	
